<svg width="178" height="30" viewBox="0 0 178 30" fill="none" xmlns="http://www.w3.org/2000/svg">
<circle cx="102" cy="15" r="14.5" fill="white" stroke="black"/>
<path d="M5.83984 14.6621C4.23177 14.1999 3.0599 13.6335 2.32422 12.9629C1.59505 12.2858 1.23047 11.4525 1.23047 10.4629C1.23047 9.3431 1.67643 8.41862 2.56836 7.68945C3.4668 6.95378 4.63216 6.58594 6.06445 6.58594C7.04102 6.58594 7.91016 6.77474 8.67188 7.15234C9.4401 7.52995 10.0326 8.05078 10.4492 8.71484C10.8724 9.37891 11.084 10.1048 11.084 10.8926H9.19922C9.19922 10.0332 8.92578 9.35938 8.37891 8.87109C7.83203 8.3763 7.06055 8.12891 6.06445 8.12891C5.13997 8.12891 4.41732 8.33398 3.89648 8.74414C3.38216 9.14779 3.125 9.71094 3.125 10.4336C3.125 11.013 3.36914 11.5046 3.85742 11.9082C4.35221 12.3053 5.1888 12.6699 6.36719 13.002C7.55208 13.334 8.47656 13.7018 9.14062 14.1055C9.8112 14.5026 10.306 14.9681 10.625 15.502C10.9505 16.0358 11.1133 16.6641 11.1133 17.3867C11.1133 18.5391 10.6641 19.4635 9.76562 20.1602C8.86719 20.8503 7.66602 21.1953 6.16211 21.1953C5.18555 21.1953 4.27409 21.0098 3.42773 20.6387C2.58138 20.2611 1.92708 19.7467 1.46484 19.0957C1.00911 18.4447 0.78125 17.7057 0.78125 16.8789H2.66602C2.66602 17.7383 2.98177 18.4186 3.61328 18.9199C4.2513 19.4147 5.10091 19.6621 6.16211 19.6621C7.15169 19.6621 7.91016 19.4603 8.4375 19.0566C8.96484 18.653 9.22852 18.1029 9.22852 17.4062C9.22852 16.7096 8.98438 16.1725 8.49609 15.7949C8.00781 15.4108 7.1224 15.0332 5.83984 14.6621ZM17.4805 19.7207C18.125 19.7207 18.6882 19.5254 19.1699 19.1348C19.6517 18.7441 19.9186 18.2559 19.9707 17.6699H21.6797C21.6471 18.2754 21.4388 18.8516 21.0547 19.3984C20.6706 19.9453 20.1562 20.3815 19.5117 20.707C18.8737 21.0326 18.1966 21.1953 17.4805 21.1953C16.0417 21.1953 14.8958 20.7168 14.043 19.7598C13.1966 18.7962 12.7734 17.4811 12.7734 15.8145V15.5117C12.7734 14.4831 12.9622 13.5684 13.3398 12.7676C13.7174 11.9668 14.2578 11.3451 14.9609 10.9023C15.6706 10.4596 16.5072 10.2383 17.4707 10.2383C18.6556 10.2383 19.6387 10.5931 20.4199 11.3027C21.2077 12.0124 21.6276 12.9336 21.6797 14.0664H19.9707C19.9186 13.3828 19.6582 12.8229 19.1895 12.3867C18.7272 11.944 18.1543 11.7227 17.4707 11.7227C16.5527 11.7227 15.8398 12.0547 15.332 12.7188C14.8307 13.3763 14.5801 14.3301 14.5801 15.5801V15.9219C14.5801 17.1393 14.8307 18.0768 15.332 18.7344C15.8333 19.3919 16.5495 19.7207 17.4805 19.7207ZM28.8184 12.0547C28.5449 12.0091 28.2487 11.9863 27.9297 11.9863C26.7448 11.9863 25.9408 12.4909 25.5176 13.5V21H23.7109V10.4336H25.4688L25.498 11.6543C26.0905 10.7103 26.9303 10.2383 28.0176 10.2383C28.3691 10.2383 28.6361 10.2839 28.8184 10.375V12.0547ZM34.6777 21.1953C33.2454 21.1953 32.0801 20.7266 31.1816 19.7891C30.2832 18.8451 29.834 17.5853 29.834 16.0098V15.6777C29.834 14.6296 30.0326 13.6953 30.4297 12.875C30.8333 12.0482 31.3932 11.4036 32.1094 10.9414C32.832 10.4727 33.6133 10.2383 34.4531 10.2383C35.8268 10.2383 36.8945 10.6908 37.6562 11.5957C38.418 12.5007 38.7988 13.7962 38.7988 15.4824V16.2344H31.6406C31.6667 17.276 31.9694 18.1191 32.5488 18.7637C33.1348 19.4017 33.877 19.7207 34.7754 19.7207C35.4134 19.7207 35.9538 19.5905 36.3965 19.3301C36.8392 19.0697 37.2266 18.7246 37.5586 18.2949L38.6621 19.1543C37.7767 20.515 36.4486 21.1953 34.6777 21.1953ZM34.4531 11.7227C33.724 11.7227 33.112 11.9896 32.6172 12.5234C32.1224 13.0508 31.8164 13.793 31.6992 14.75L36.9922 14.75V14.6133C36.9401 13.6953 36.6927 12.9857 36.25 12.4844C35.8073 11.9766 35.2083 11.7227 34.4531 11.7227ZM45.2832 21.1953C43.8509 21.1953 42.6855 20.7266 41.7871 19.7891C40.8887 18.8451 40.4395 17.5853 40.4395 16.0098V15.6777C40.4395 14.6296 40.638 13.6953 41.0352 12.875C41.4388 12.0482 41.9987 11.4036 42.7148 10.9414C43.4375 10.4727 44.2188 10.2383 45.0586 10.2383C46.4323 10.2383 47.5 10.6908 48.2617 11.5957C49.0234 12.5007 49.4043 13.7962 49.4043 15.4824V16.2344H42.2461C42.2721 17.276 42.5749 18.1191 43.1543 18.7637C43.7402 19.4017 44.4824 19.7207 45.3809 19.7207C46.0189 19.7207 46.5592 19.5905 47.002 19.3301C47.4447 19.0697 47.832 18.7246 48.1641 18.2949L49.2676 19.1543C48.3822 20.515 47.054 21.1953 45.2832 21.1953ZM45.0586 11.7227C44.3294 11.7227 43.7174 11.9896 43.2227 12.5234C42.7279 13.0508 42.4219 13.793 42.3047 14.75H47.5977V14.6133C47.5456 13.6953 47.2982 12.9857 46.8555 12.4844C46.4128 11.9766 45.8138 11.7227 45.0586 11.7227ZM53.2129 10.4336L53.2715 11.7617C54.0788 10.7461 55.1335 10.2383 56.4355 10.2383C58.6686 10.2383 59.7949 11.498 59.8145 14.0176V21H58.0078V14.0078C58.0013 13.2461 57.8255 12.6829 57.4805 12.3184C57.1419 11.9538 56.6113 11.7715 55.8887 11.7715C55.3027 11.7715 54.7884 11.9277 54.3457 12.2402C53.903 12.5527 53.5579 12.9629 53.3105 13.4707V21H51.5039V10.4336H53.2129ZM68.6914 18.1973C68.6914 17.709 68.5059 17.3314 68.1348 17.0645C67.7702 16.791 67.1289 16.5566 66.2109 16.3613C65.2995 16.166 64.5736 15.9316 64.0332 15.6582C63.4993 15.3848 63.1022 15.0592 62.8418 14.6816C62.5879 14.304 62.4609 13.8548 62.4609 13.334C62.4609 12.4681 62.8255 11.7357 63.5547 11.1367C64.2904 10.5378 65.2279 10.2383 66.3672 10.2383C67.5651 10.2383 68.5352 10.5475 69.2773 11.166C70.026 11.7845 70.4004 12.5755 70.4004 13.5391H68.584C68.584 13.0443 68.3724 12.6178 67.9492 12.2598C67.5326 11.9017 67.0052 11.7227 66.3672 11.7227C65.7096 11.7227 65.1953 11.8659 64.8242 12.1523C64.4531 12.4388 64.2676 12.8132 64.2676 13.2754C64.2676 13.7116 64.4401 14.0404 64.7852 14.2617C65.1302 14.4831 65.752 14.6947 66.6504 14.8965C67.5553 15.0983 68.2878 15.3392 68.8477 15.6191C69.4076 15.8991 69.821 16.2376 70.0879 16.6348C70.3613 17.0254 70.498 17.5039 70.498 18.0703C70.498 19.0143 70.1204 19.7728 69.3652 20.3457C68.61 20.9121 67.6302 21.1953 66.4258 21.1953C65.5794 21.1953 64.8307 21.0456 64.1797 20.7461C63.5286 20.4466 63.0176 20.0299 62.6465 19.4961C62.2819 18.9557 62.0996 18.373 62.0996 17.748H63.9062C63.9388 18.3535 64.1797 18.8353 64.6289 19.1934C65.0846 19.5449 65.6836 19.7207 66.4258 19.7207C67.1094 19.7207 67.6562 19.584 68.0664 19.3105C68.4831 19.0306 68.6914 18.6595 68.6914 18.1973ZM74.6582 11.7129C75.459 10.7298 76.5007 10.2383 77.7832 10.2383C80.0163 10.2383 81.1426 11.498 81.1621 14.0176V21L79.3555 21V14.0078C79.349 13.2461 79.1732 12.6829 78.8281 12.3184C78.4896 11.9538 77.959 11.7715 77.2363 11.7715C76.6504 11.7715 76.1361 11.9277 75.6934 12.2402C75.2507 12.5527 74.9056 12.9629 74.6582 13.4707V21H72.8516V6H74.6582V11.7129ZM83.3887 15.6191C83.3887 14.584 83.5905 13.653 83.9941 12.8262C84.4043 11.9993 84.9707 11.3613 85.6934 10.9121C86.4225 10.4629 87.2526 10.2383 88.1836 10.2383C89.6224 10.2383 90.7845 10.7363 91.6699 11.7324C92.5618 12.7285 93.0078 14.0534 93.0078 15.707V15.834C93.0078 16.8626 92.8092 17.7871 92.4121 18.6074C92.0215 19.4212 91.4583 20.056 90.7227 20.5117C89.9935 20.9674 89.1536 21.1953 88.2031 21.1953C86.7708 21.1953 85.6087 20.6973 84.7168 19.7012C83.8314 18.7051 83.3887 17.3867 83.3887 15.7461V15.6191ZM85.2051 15.834C85.2051 17.0059 85.4753 17.9466 86.0156 18.6563C86.5625 19.3659 87.2917 19.7207 88.2031 19.7207C89.1211 19.7207 89.8503 19.3626 90.3906 18.6465C90.931 17.9238 91.2012 16.9147 91.2012 15.6191C91.2012 14.4603 90.9245 13.5228 90.3711 12.8066C89.8242 12.084 89.0951 11.7227 88.1836 11.7227C87.2917 11.7227 86.5723 12.0775 86.0254 12.7871C85.4785 13.4967 85.2051 14.5124 85.2051 15.834ZM97.7246 7.875V10.4336H99.6973V11.8301H97.7246V18.3828C97.7246 18.806 97.8125 19.125 97.9883 19.3398C98.1641 19.5482 98.4635 19.6523 98.8867 19.6523C99.0951 19.6523 99.3815 19.6133 99.7461 19.5352V21C99.2708 21.1302 98.8086 21.1953 98.3594 21.1953C97.5521 21.1953 96.9434 20.9512 96.5332 20.4629C96.123 19.9746 95.918 19.2813 95.918 18.3828V11.8301H93.9941V10.4336H95.918V7.875H97.7246Z" fill="black"/>
<path d="M109.482 6.78125L114.131 18.3828L118.779 6.78125H121.211V21H119.336V15.4629L119.512 9.48633L114.844 21H113.408L108.75 9.51563L108.936 15.4629V21H107.061V6.78125H109.482ZM123.76 15.6191C123.76 14.584 123.962 13.653 124.365 12.8262C124.775 11.9993 125.342 11.3613 126.064 10.9121C126.794 10.4629 127.624 10.2383 128.555 10.2383C129.993 10.2383 131.156 10.7363 132.041 11.7324C132.933 12.7285 133.379 14.0534 133.379 15.707V15.834C133.379 16.8626 133.18 17.7871 132.783 18.6074C132.393 19.4212 131.829 20.056 131.094 20.5117C130.365 20.9674 129.525 21.1953 128.574 21.1953C127.142 21.1953 125.98 20.6973 125.088 19.7012C124.202 18.7051 123.76 17.3867 123.76 15.7461V15.6191ZM125.576 15.834C125.576 17.0059 125.846 17.9466 126.387 18.6563C126.934 19.3659 127.663 19.7207 128.574 19.7207C129.492 19.7207 130.221 19.3626 130.762 18.6465C131.302 17.9238 131.572 16.9147 131.572 15.6191C131.572 14.4603 131.296 13.5228 130.742 12.8066C130.195 12.084 129.466 11.7227 128.555 11.7227C127.663 11.7227 126.943 12.0775 126.396 12.7871C125.85 13.4967 125.576 14.5124 125.576 15.834ZM139.883 19.7207C140.527 19.7207 141.09 19.5254 141.572 19.1348C142.054 18.7441 142.321 18.2559 142.373 17.6699H144.082C144.049 18.2754 143.841 18.8516 143.457 19.3984C143.073 19.9453 142.559 20.3815 141.914 20.707C141.276 21.0326 140.599 21.1953 139.883 21.1953C138.444 21.1953 137.298 20.7168 136.445 19.7598C135.599 18.7962 135.176 17.4811 135.176 15.8145V15.5117C135.176 14.4831 135.365 13.5684 135.742 12.7676C136.12 11.9668 136.66 11.3451 137.363 10.9023C138.073 10.4596 138.91 10.2383 139.873 10.2383C141.058 10.2383 142.041 10.5931 142.822 11.3027C143.61 12.0124 144.03 12.9336 144.082 14.0664H142.373C142.321 13.3828 142.061 12.8229 141.592 12.3867C141.13 11.944 140.557 11.7227 139.873 11.7227C138.955 11.7227 138.242 12.0547 137.734 12.7188C137.233 13.3763 136.982 14.3301 136.982 15.5801V15.9219C136.982 17.1393 137.233 18.0768 137.734 18.7344C138.236 19.3919 138.952 19.7207 139.883 19.7207ZM149.062 16.1074L147.93 17.2891V21H146.123V6H147.93V15.0723L148.896 13.9102L152.188 10.4336H154.385L150.273 14.8477L154.863 21H152.744L149.062 16.1074ZM162.773 19.9551C162.07 20.7819 161.038 21.1953 159.678 21.1953C158.551 21.1953 157.692 20.8698 157.1 20.2188C156.514 19.5612 156.217 18.5911 156.211 17.3086V10.4336H158.018V17.2598C158.018 18.8613 158.669 19.6621 159.971 19.6621C161.351 19.6621 162.269 19.1478 162.725 18.1191V10.4336H164.531V21H162.812L162.773 19.9551ZM176.211 15.834C176.211 17.4421 175.843 18.7376 175.107 19.7207C174.372 20.7038 173.376 21.1953 172.119 21.1953C170.837 21.1953 169.827 20.7884 169.092 19.9746V25.0625H167.285V10.4336L168.936 10.4336L169.023 11.6055C169.759 10.694 170.781 10.2383 172.09 10.2383C173.359 10.2383 174.362 10.7168 175.098 11.6738C175.84 12.6309 176.211 13.9622 176.211 15.668V15.834ZM174.404 15.6289C174.404 14.4375 174.15 13.4967 173.643 12.8066C173.135 12.1165 172.438 11.7715 171.553 11.7715C170.459 11.7715 169.639 12.2565 169.092 13.2266V18.2754C169.632 19.2389 170.459 19.7207 171.572 19.7207C172.438 19.7207 173.125 19.3789 173.633 18.6953C174.147 18.0052 174.404 16.9831 174.404 15.6289Z" fill="#00B5D8"/>
</svg>
